<svg id="Capa_1" data-name="Capa 1" xmlns="http://www.w3.org/2000/svg" viewBox="0 0 21.38 10.46"><defs><style>.cls-1{fill:#51504e;}</style></defs><path class="cls-1" d="M6.14,7A21.37,21.37,0,0,0,12,9.77a18.83,18.83,0,0,0,6.68.81,2.7,2.7,0,0,1,.32,0,16.75,16.75,0,0,1-7.07.59,7.67,7.67,0,0,1-1.82-.5A7.84,7.84,0,0,1,7.49,8.85,8,8,0,0,1,6.14,7Z" transform="translate(-1.74 -6.53)"/><path class="cls-1" d="M3.7,7.44C5.28,8.83,5.44,9,5.63,9.19a7.91,7.91,0,0,1,.92,1.05c.3.42.4.68.91,1.43a3.86,3.86,0,0,0,.49.68,2.51,2.51,0,0,0,1.57.59,4.52,4.52,0,0,0,.77-.07c.71-.1,1.15-.22,1.55-.31a11.71,11.71,0,0,1,1.8-.24,15.45,15.45,0,0,1,2.8,0,13.27,13.27,0,0,1,2.47.44,13,13,0,0,1,2.65,1.11c.58.29.12.11,1,.62a1.82,1.82,0,0,1,.53.55.26.26,0,0,1,.06.21c-.06.16-.41.17-.56.18a7.42,7.42,0,0,1-2.3-.52,13.47,13.47,0,0,0-1.8-.38,9.18,9.18,0,0,0-1.51-.11,11.3,11.3,0,0,0-3.08.53c-.39.11-.7.21-.9.28-.77.25-1.27.46-1.86.7a16.65,16.65,0,0,1-2.69,1,2.9,2.9,0,0,1-2-.16,2,2,0,0,1-.91-1,1.37,1.37,0,0,1-.05-.35,13.45,13.45,0,0,0-.35-1.92,11.28,11.28,0,0,0-.68-2.19,10,10,0,0,0-.89-1.58c-.46-.71-.7-.89-1.19-1.7C2,7.42,1.6,6.76,1.78,6.57s.22-.05.39,0A4,4,0,0,1,3.7,7.44Z" transform="translate(-1.74 -6.53)"/></svg>